<svg width="27" height="27" viewBox="0 0 34 32" fill="none" xmlns="http://www.w3.org/2000/svg">
<path d="M10.6466 12.875V7.875C10.6466 6.2174 11.3051 4.62768 12.4772 3.45558C13.6493 2.28348 15.239 1.625 16.8966 1.625C18.5542 1.625 20.1439 2.28348 21.316 3.45558C22.4881 4.62768 23.1466 6.2174 23.1466 7.875V12.875M29.5278 30.375H4.26537C3.95776 30.375 3.66094 30.2616 3.43172 30.0564C3.20251 29.8513 3.05699 29.5688 3.02302 29.263L0.800797 9.26304C0.781384 9.08832 0.799043 8.91146 0.852623 8.74403C0.906203 8.57659 0.994498 8.42234 1.11174 8.29135C1.22899 8.16036 1.37254 8.05557 1.53304 7.98382C1.69353 7.91208 1.86735 7.875 2.04315 7.875H31.75C31.9258 7.875 32.0996 7.91208 32.2601 7.98382C32.4206 8.05557 32.5642 8.16036 32.6814 8.29135C32.7986 8.42234 32.8869 8.57659 32.9405 8.74403C32.9941 8.91146 33.0118 9.08832 32.9923 9.26304L30.7701 29.263C30.7362 29.5688 30.5906 29.8513 30.3614 30.0564C30.1322 30.2616 29.8354 30.375 29.5278 30.375Z" stroke="#812727" stroke-width="1.5" stroke-linecap="round" stroke-linejoin="round"/>
</svg>
